# xmcd CD database file
#
# Track frame offsets:
#	150
#	16155
#	40808
#	55998
#	75550
#	89895
#	109123
#	121185
#	135723
#	158523
#	172953
#
# Disc length: 2511 seconds
#
# Revision: 0
# Processed by: cddbd v1.4PL0 Copyright (c) Steve Scherf et al.
# Submitted via: Feurio! 1.65 - http://www.feurio.com
#
DISCID=8209cd0b
DTITLE=Snatch It Back - Red Hot and Blue
DYEAR=1993
DGENRE=blues
TTITLE0=Snatch It Back And Hold It
TTITLE1=The Doctor
TTITLE2=Drunk Instead
TTITLE3=Big Leg Woman
TTITLE4=Knighttime
TTITLE5=Ride Your Pony
TTITLE6=I Stand Accused
TTITLE7=Heart Of Stone
TTITLE8=Late Night Shift
TTITLE9=Riot In Cell Block No 9
TTITLE10=She's Hot
EXTD=
EXTT0=
EXTT1=
EXTT2=
EXTT3=
EXTT4=
EXTT5=
EXTT6=
EXTT7=
EXTT8=
EXTT9=
EXTT10=
PLAYORDER=
